<svg width="70" height="70" viewBox="0 0 70 70" fill="none" xmlns="http://www.w3.org/2000/svg">
<path d="M38.4166 62.1212C45.309 61.2442 51.6089 57.7756 56.0358 52.4205C60.4626 47.0654 62.6843 40.2256 62.2492 33.2912C61.8141 26.3569 58.7549 19.8484 53.6934 15.0886C48.6319 10.3289 41.9479 7.67495 35 7.66634C28.0435 7.66116 21.3468 10.3086 16.2744 15.0692C11.202 19.8297 8.13555 26.3452 7.69994 33.2881C7.26432 40.2309 9.4923 47.0786 13.9299 52.4358C18.3675 57.7931 24.6808 61.2568 31.5833 62.1212V41.833H24.75V34.9997H31.5833V29.3485C31.5833 24.7804 32.0616 23.1233 32.95 21.4526C33.825 19.7996 35.1775 18.4483 36.8313 17.5747C38.1365 16.8743 39.7594 16.454 42.5952 16.2729C43.7193 16.2012 45.1748 16.29 46.9617 16.5463V23.0379H45.25C42.1169 23.0379 40.822 23.1848 40.0498 23.5983C39.5891 23.8352 39.2139 24.2103 38.977 24.6711C38.567 25.4433 38.4166 26.2086 38.4166 29.3451V34.9997H46.9583L45.25 41.833H38.4166V62.1212ZM35 69.1663C16.1297 69.1663 0.833313 53.8699 0.833313 34.9997C0.833313 16.1294 16.1297 0.833008 35 0.833008C53.8702 0.833008 69.1666 16.1294 69.1666 34.9997C69.1666 53.8699 53.8702 69.1663 35 69.1663Z" fill="white"/>
</svg>
