<svg width="70" height="70" viewBox="0 0 70 70" fill="none" xmlns="http://www.w3.org/2000/svg">
<path d="M35 24.7497C32.2815 24.7497 29.6744 25.8296 27.7522 27.7518C25.8299 29.6741 24.75 32.2812 24.75 34.9997C24.75 37.7181 25.8299 40.3253 27.7522 42.2475C29.6744 44.1698 32.2815 45.2497 35 45.2497C37.7185 45.2497 40.3256 44.1698 42.2479 42.2475C44.1701 40.3253 45.25 37.7181 45.25 34.9997C45.25 32.2812 44.1701 29.6741 42.2479 27.7518C40.3256 25.8296 37.7185 24.7497 35 24.7497ZM35 17.9163C39.5308 17.9163 43.876 19.7162 47.0798 22.9199C50.2835 26.1237 52.0833 30.4689 52.0833 34.9997C52.0833 39.5305 50.2835 43.8757 47.0798 47.0794C43.876 50.2832 39.5308 52.083 35 52.083C30.4692 52.083 26.124 50.2832 22.9203 47.0794C19.7165 43.8757 17.9167 39.5305 17.9167 34.9997C17.9167 30.4689 19.7165 26.1237 22.9203 22.9199C26.124 19.7162 30.4692 17.9163 35 17.9163ZM57.2083 17.0622C57.2083 18.1949 56.7584 19.2812 55.9574 20.0821C55.1565 20.883 54.0702 21.333 52.9375 21.333C51.8048 21.333 50.7185 20.883 49.9176 20.0821C49.1166 19.2812 48.6667 18.1949 48.6667 17.0622C48.6667 15.9295 49.1166 14.8432 49.9176 14.0422C50.7185 13.2413 51.8048 12.7913 52.9375 12.7913C54.0702 12.7913 55.1565 13.2413 55.9574 14.0422C56.7584 14.8432 57.2083 15.9295 57.2083 17.0622ZM35 7.66634C26.5472 7.66634 25.1668 7.69026 21.2343 7.86451C18.5556 7.99092 16.7584 8.34967 15.0911 8.99884C13.6083 9.57284 12.5388 10.2596 11.4011 11.4008C10.3317 12.434 9.50947 13.6953 8.99576 15.0908C8.34659 16.7649 7.98784 18.5587 7.86484 21.2339C7.68718 25.0059 7.66668 26.3248 7.66668 34.9997C7.66668 43.4525 7.69059 44.8328 7.86484 48.7654C7.99126 51.4407 8.35001 53.2413 8.99576 54.9052C9.57659 56.3914 10.2599 57.4608 11.3943 58.5952C12.5457 59.7432 13.6151 60.4299 15.0843 60.9971C16.7721 61.6497 18.5693 62.0118 21.2343 62.1348C25.0063 62.3125 26.3251 62.333 35 62.333C43.4528 62.333 44.8332 62.3091 48.7658 62.1348C51.4376 62.0084 53.2382 61.6497 54.9055 61.0039C56.3849 60.4265 57.4612 59.7398 58.5955 58.6054C59.7469 57.454 60.4337 56.3846 61.0008 54.9154C61.65 53.231 62.0122 51.4304 62.1352 48.7654C62.3128 44.9934 62.3333 43.6746 62.3333 34.9997C62.3333 26.5468 62.3094 25.1665 62.1352 21.2339C62.0088 18.5621 61.65 16.7581 61.0008 15.0908C60.4859 13.6968 59.6652 12.4359 58.5989 11.4008C57.5662 10.3308 56.3047 9.50849 54.9089 8.99542C53.2348 8.34626 51.4376 7.98751 48.7658 7.86451C44.9938 7.68684 43.6749 7.66634 35 7.66634ZM35 0.833008C44.2831 0.833008 45.4413 0.867174 49.0835 1.03801C52.7223 1.20884 55.1993 1.77942 57.3792 2.62676C59.6342 3.49459 61.5338 4.66992 63.4335 6.56617C65.1709 8.27415 66.5152 10.3402 67.3729 12.6205C68.2168 14.7969 68.7908 17.2774 68.9617 20.9162C69.1223 24.5583 69.1667 25.7166 69.1667 34.9997C69.1667 44.2828 69.1325 45.441 68.9617 49.0832C68.7908 52.7219 68.2168 55.199 67.3729 57.3788C66.5177 59.6604 65.173 61.7269 63.4335 63.4332C61.725 65.1699 59.6591 66.5142 57.3792 67.3726C55.2028 68.2165 52.7223 68.7905 49.0835 68.9613C45.4413 69.1219 44.2831 69.1663 35 69.1663C25.7169 69.1663 24.5587 69.1322 20.9165 68.9613C17.2778 68.7905 14.8007 68.2165 12.6208 67.3726C10.3396 66.5166 8.27323 65.1721 6.56651 63.4332C4.82882 61.7255 3.48444 59.6594 2.62709 57.3788C1.77976 55.2024 1.20918 52.7219 1.03834 49.0832C0.87776 45.441 0.833344 44.2828 0.833344 34.9997C0.833344 25.7166 0.86751 24.5583 1.03834 20.9162C1.20918 17.274 1.77976 14.8003 2.62709 12.6205C3.48207 10.3388 4.82676 8.27219 6.56651 6.56617C8.27372 4.82788 10.34 3.48342 12.6208 2.62676C14.8007 1.77942 17.2743 1.20884 20.9165 1.03801C24.5587 0.877424 25.7169 0.833008 35 0.833008Z" fill="white"/>
</svg>
