<svg width="140" height="140" viewBox="0 0 140 140" fill="none" xmlns="http://www.w3.org/2000/svg">
<circle cx="70" cy="70" r="70" fill="#6300FC"/>
<ellipse cx="58.5" cy="37.5" rx="4.5" ry="6.5" fill="white"/>
<ellipse cx="66.8944" cy="36.0771" rx="3" ry="4" transform="rotate(1.49826 66.8944 36.0771)" fill="white"/>
<ellipse cx="73.4076" cy="37.5642" rx="2.5" ry="3.5" transform="rotate(1.49826 73.4076 37.5642)" fill="white"/>
<ellipse cx="77.8624" cy="42.4324" rx="2.5" ry="3" transform="rotate(11.3215 77.8624 42.4324)" fill="white"/>
<ellipse cx="81.4703" cy="47.844" rx="2" ry="2.5" transform="rotate(11.3215 81.4703 47.844)" fill="white"/>
<path d="M67.6215 43.0941C64.1008 42.6609 61.1197 43.7815 58.8902 45.2665C55.9211 47.2442 55 50.9578 55 54.5252C55 57.0103 60.0486 59.4953 67.1166 63.9683C74.1847 68.4414 73.6798 74.4054 70.6506 81.3635C67.6215 88.3216 61.5632 83.8485 62.068 97.7647C62.1517 100.072 62.6271 101.793 63.3702 103.047C68.3746 111.499 79.5137 99.0527 78.2235 89.3156C76.709 77.8845 83.2721 65.9564 83.777 65.4593C89.0807 60.2381 81.5173 50.4781 75.3328 46.3378C72.8835 44.698 70.2093 43.4126 67.6215 43.0941Z" fill="white"/>
</svg>
